<?xml version="1.0" encoding="UTF-8"?>
<svg id="uuid-8f1b1bf7-8e63-4a41-b446-fa03252010da" data-name="Слой 2" xmlns="http://www.w3.org/2000/svg" viewBox="0 0 145.16 145.23">
  <g id="uuid-ac8222e3-347b-4e9c-b17c-81459c4cf6c9" data-name="Слой 2">
    <path d="M1.03,2.53c.14,7.18,.28,14.35,.42,21.53,.03,1.62,2.67,2.13,2.95,.4,.29-1.84-.04-3.58-.13-5.42s.45-2.97,2.3-3.45c4.22-1.09,8.67,.81,12.5,2.41l.8-2.89c-5.61-1.81-11.12-3.91-16.5-6.32l-.76,2.8c6.93-.19,12.81-4.08,18.29-7.93,1.57-1.1,.07-3.7-1.51-2.59-5,3.51-10.44,7.34-16.78,7.52-1.37,.04-2.2,2.15-.76,2.8,5.62,2.51,11.36,4.73,17.22,6.62,.78,.25,1.63-.29,1.85-1.05,.25-.86-.3-1.53-1.05-1.85-4.48-1.88-9.84-3.93-14.71-2.23-2.02,.71-3.49,2.21-3.81,4.37s.49,4.29,.15,6.41l2.95,.4c-.14-7.18-.28-14.35-.42-21.53-.04-1.93-3.04-1.93-3,0h0Z"/>
    <path d="M26.05,4.41l.23,9.34c.06,2.27-.41,5.8,1.85,7.24,2.57,1.64,5.26-1.17,6.89-2.9,1.84-1.95,3.4-4.17,4.74-6.49,1.52-2.6,2.79-5.34,4.05-8.07l-2.74-.36c.69,3.18,.97,6.43,.85,9.68-.1,2.63-1,5.72,1.44,7.57,.65,.49,1.68,.1,2.05-.54,.45-.77,.11-1.56-.54-2.05-.49-.37-.19-1.88-.14-2.37,.13-1.41,.22-2.83,.21-4.25-.01-2.97-.36-5.94-.99-8.84-.26-1.2-2.2-1.53-2.74-.36-2.41,5.23-4.9,10.68-9.11,14.74-.36,.34-1.85,2.01-2.4,1.7-.3-.17-.32-.97-.34-1.27-.06-.75-.05-1.51-.07-2.26l-.26-10.51c-.05-1.93-3.05-1.93-3,0h0Z"/>
    <path d="M52.68,3c.22,6.28,.45,12.56,.67,18.84l2.95-.4c-.53-2.42-1.27-5.54,.56-7.62,1.61-1.83,4.4-.76,6.49-.78,2.45-.02,4.54-1.22,5.49-3.52,.87-2.14,.66-4.52,.35-6.75-.24-1.7-2.96-1.25-2.95,.4,.02,4.04,.05,8.09,.07,12.13,0,1,.01,1.99,.02,2.99,0,.93-.14,2.02,.08,2.93,.38,1.56,2.62,2.79,3.58,.95,.89-1.71-1.7-3.23-2.59-1.51l-.07,.14,.9-.69-.11,.05h.8c.3,.47,.45,.53,.44,.19v-.37c0-.37,0-.75,0-1.12,0-.75,0-1.49-.01-2.24,0-1.49-.02-2.99-.03-4.48-.02-2.99-.04-5.97-.06-8.96l-2.95,.4c.24,1.71,.52,4.18-.68,5.62-1.4,1.67-4.41,.56-6.25,.59-2.57,.04-4.73,1.38-5.82,3.72-1.31,2.8-.76,5.85-.13,8.74,.36,1.65,3.01,1.29,2.95-.4-.22-6.28-.45-12.56-.67-18.84-.07-1.92-3.07-1.93-3,0h0Z"/>
    <path d="M75.58,3.95c.48,5.94,.69,11.9,.64,17.85,0,.94,.97,1.75,1.9,1.45,4.58-1.49,9.34-2.09,14.15-1.78,1.93,.12,1.92-2.88,0-3-5.05-.32-10.14,.32-14.94,1.89l1.9,1.45c.05-5.96-.17-11.91-.64-17.85-.15-1.91-3.16-1.93-3,0h0Z"/>
    <path d="M78.57,13.98c3.59-.64,7.22-.99,10.87-1.08,.81-.02,1.5-.68,1.5-1.5s-.69-1.52-1.5-1.5c-3.91,.1-7.81,.5-11.67,1.19-.8,.14-1.25,1.12-1.05,1.85,.23,.84,1.04,1.19,1.85,1.05h0Z"/>
    <path d="M76.28,4.43c5.17,.44,10.37,.13,15.47-.83,.8-.15,1.25-1.11,1.05-1.85-.23-.83-1.05-1.2-1.85-1.05-4.84,.91-9.77,1.13-14.67,.72-.81-.07-1.5,.74-1.5,1.5,0,.87,.69,1.43,1.5,1.5h0Z"/>
    <path d="M102.74,19.94c.43-5.8,.87-11.59,1.3-17.39l-2.95,.4c1.03,2.62,1.94,5.33,3.13,7.87,1.01,2.17,3.15,3.39,5.49,2.45s3.22-3.21,4.21-5.37,2.41-3.84,4.32-5.11l-2.2-.9c1.14,5.78,1.45,11.68,.98,17.56-.15,1.92,2.85,1.91,3,0,.49-6.14,.11-12.31-1.09-18.36-.18-.92-1.44-1.41-2.2-.9-1.68,1.11-3.11,2.49-4.25,4.15-.56,.82-1.01,1.69-1.4,2.6s-.77,1.99-1.44,2.78c-.39,.47-1.11,1.01-1.77,.86s-.94-1.02-1.17-1.55c-.95-2.28-1.81-4.6-2.72-6.9-.62-1.56-2.82-1.35-2.95,.4-.43,5.8-.87,11.59-1.3,17.39-.14,1.93,2.86,1.92,3,0h0Z"/>
    <path d="M127.12,20.9c1.93-2.69,3.64-5.52,5.08-8.5,.73-1.5,1.39-3.03,1.99-4.58,.53-1.36,.87-2.83,1.62-4.07,.04-.06,.31-.11,.21-.12-.15-.09-.17-.06-.07,.08,.07,.21,.13,.42,.2,.62,.27,.86,.53,1.72,.79,2.59,.51,1.73,1.01,3.46,1.49,5.2,.96,3.47,1.86,6.97,2.68,10.47,.44,1.88,3.34,1.08,2.89-.8-1.49-6.28-3.05-12.63-5.12-18.75-.43-1.28-1.26-2.33-2.71-2.4s-2.59,.83-3.23,1.99-.98,2.62-1.46,3.89c-.52,1.37-1.09,2.72-1.72,4.04-1.48,3.09-3.23,6.04-5.23,8.82-.48,.66-.11,1.66,.54,2.05,.75,.45,1.58,.12,2.05-.54h0Z"/>
    <path d="M141.24,12.06c-3.14-.3-6.29-.36-9.43-.17-.78,.05-1.54,.66-1.5,1.5,.03,.77,.66,1.55,1.5,1.5,3.15-.19,6.3-.13,9.43,.17,.78,.08,1.53-.74,1.5-1.5-.04-.88-.66-1.42-1.5-1.5h0Z"/>
    <path d="M6.27,49.11c-.31-3.44-.66-6.88-.94-10.32-.21-2.61-.36-5.92,2.01-7.66s5.31-1.23,7.6,.2c.87,.54,2.54,1.59,2.51,2.77-.02,1.02-1.15,1.82-1.94,2.28-1.46,.87-3.23,1.25-4.89,1.56-1.95,.36-3.93,.44-5.9,.32s-1.92,2.89,0,3c3.97,.23,8.65-.22,12.17-2.22,1.41-.8,2.75-2,3.3-3.56,.61-1.75-.03-3.46-1.26-4.75-2.56-2.69-6.46-4.28-10.16-3.47s-6.09,4.01-6.48,7.79c-.22,2.1,.07,4.23,.26,6.33l.7,7.73c.17,1.91,3.18,1.93,3,0h0Z"/>
    <path d="M2.93,59.77c-.68-.26-.21-.38-.27-.04-.02,.09,.03,.34,.04,.42,.02,.56,.02,1.12,.03,1.68,.02,1.29,.05,2.58,.07,3.87,.04,2.52,.09,5.05,.13,7.57,.02,1.19,1.7,2.13,2.56,1.06,3.58-4.45,7.16-8.91,10.74-13.36,.09-.11,1.23-1.32,1.21-1.41l-.67-.33c0,.08,.02,.16,.05,.24-.05,.24,.1,.64,.14,.88,.22,1.39,.44,2.78,.66,4.17,.45,2.83,.89,5.67,1.34,8.5,.13,.8,1.13,1.25,1.85,1.05,.85-.23,1.17-1.04,1.05-1.85-.51-3.22-1.02-6.44-1.52-9.67-.14-.89-.28-1.78-.42-2.67-.11-.67-.15-1.37-.46-1.98-.7-1.41-2.35-1.7-3.63-.85s-2.16,2.36-3.1,3.52l-3.09,3.84c-2.09,2.6-4.18,5.2-6.28,7.8l2.56,1.06c-.05-3.08-.11-6.17-.16-9.25-.03-1.42,.03-2.87-.09-4.28-.12-1.33-.65-2.37-1.95-2.86-.76-.29-1.65,.32-1.85,1.05-.23,.84,.29,1.56,1.05,1.85h0Z"/>
    <path d="M1.45,83.57c7.24,.33,14.49-.42,21.52-2.19,1.87-.47,1.08-3.36-.8-2.89-6.78,1.71-13.74,2.4-20.72,2.08-1.93-.09-1.93,2.91,0,3h0Z"/>
    <path d="M10.25,83.49l.53,11.12c.07,1.53-.24,4.19,1.81,4.54,2.29,.38,2.8-3.42,.35-3.47-1.93-.04-1.93,2.96,0,3h.1c-.35-.14-.71-.29-1.06-.44l.06,.06-.39-.66-.04-.49,.39-.66,.14-.09,.76-.2h-.11c.25,.07,.5,.13,.76,.2,.41,.21,.34,.71,.32,.18,0-.32-.03-.65-.05-.97l-.08-1.67-.17-3.47-.33-6.95c-.09-1.92-3.09-1.93-3,0h0Z"/>
    <path d="M2.97,104.51c.39,.12,.32,1.89,.34,2.16,.07,1.46,.14,2.92,.21,4.38s.1,2.88,.21,4.32c.09,1.17,.38,2.39,1.46,3.04,2.61,1.54,4.74-1.83,6.01-3.58,1.42-1.96,2.74-3.99,4.17-5.94,1.56-2.13,3.32-4.2,5.45-5.78l-2.2-.9c.67,4.71,1.05,9.45,1.18,14.2,.05,1.93,3.05,1.93,3,0-.14-5.02-.58-10.02-1.29-15-.13-.91-1.49-1.43-2.2-.9-4.89,3.63-7.77,8.96-11.38,13.73-.18,.24-.37,.49-.56,.72-.15,.18-.66,.53-.73,.72-.18,.07-.16,.11,.07,.13,.09,.08,.11,.08,.08-.02,.01-.01-.08-.9-.08-.89-.09-1.75-.17-3.5-.25-5.25-.08-1.63-.05-3.31-.3-4.93-.22-1.42-.96-2.64-2.38-3.1-1.84-.59-2.63,2.31-.8,2.89h0Z"/>
    <path d="M5.56,126.77c.56,5.66,.69,11.35,.41,17.03-.1,1.94,2.86,1.91,3,0,.17-2.19,.56-4.35,1.17-6.46,.15-.52,.31-1.03,.48-1.54,.12-.35,.25-1.09,.48-1.34-.26,.28-.07,.16,.28,.32,.51,.23,.99,.54,1.48,.8,3.88,2.07,7.93,3.82,12.08,5.28l.8-2.89c-6.17-1.44-12.35-2.88-18.52-4.32l.66,2.51c4.17-4.16,8.9-7.65,14.1-10.41,1.71-.91,.19-3.5-1.51-2.59-5.41,2.87-10.38,6.55-14.71,10.88-.77,.77-.45,2.25,.66,2.51,6.17,1.44,12.35,2.88,18.52,4.32,1.9,.44,2.61-2.26,.8-2.89-2.45-.86-4.86-1.83-7.22-2.92-1.18-.55-2.35-1.12-3.51-1.73-1.04-.54-2.07-1.26-3.21-1.58s-2.23-.08-2.98,.8-1.08,2.37-1.43,3.48c-.78,2.53-1.23,5.14-1.43,7.78h3c.28-5.68,.14-11.37-.41-17.03-.08-.81-.63-1.5-1.5-1.5-.75,0-1.58,.69-1.5,1.5h0Z"/>
  </g>
  <g id="uuid-42c88375-090d-4d32-aa65-dfd7ee2a3eb9" data-name="Слой 3">
    <path d="M33.71,137.97c1.88,2.33,5.53,1.85,8.18,1.89,3.48,.05,6.97,.09,10.45,.13,7.13,.08,14.27,.15,21.4,.2,14.19,.1,28.37,.13,42.56,.09,8.05-.02,16.1-.07,24.14-.13,.88,0,1.41-.69,1.5-1.5,3.02-27.32,3.92-54.87,2.65-82.33-.36-7.73-.89-15.45-1.58-23.15-.17-1.91-3.17-1.93-3,0,2.47,27.38,2.81,54.94,.98,82.36-.51,7.72-1.2,15.42-2.05,23.11l1.5-1.5c-27.71,.23-55.42,.2-83.13-.1-3.82-.04-7.63-.09-11.45-.14-1.99-.03-3.98-.05-5.97-.08-1.37-.02-3.12,.2-4.07-.98-1.21-1.5-3.32,.63-2.12,2.12h0Z"/>
    <path d="M30.62,58.85c29.12,.53,58.26,.5,87.38-.1,8.21-.17,16.43-.39,24.64-.65,1.93-.06,1.93-3.06,0-3-29.11,.92-58.25,1.28-87.37,1.07-8.22-.06-16.43-.17-24.64-.32-1.93-.04-1.93,2.96,0,3h0Z"/>
    <path d="M41.4,54.6s0,.04,0,.05l.05-.4c-.02,.15-.06,.29-.12,.43l.15-.36c-.05,.12-.12,.24-.2,.35l.23-.3c-.08,.1-.17,.19-.27,.27l.3-.23c-.07,.06-.15,.1-.23,.15l2.05,2.05c.27-.42,.55-.83,.83-1.25,.11-.17,.17-.36,.18-.56,.04-.2,.04-.4-.03-.6-.05-.2-.14-.37-.27-.51-.11-.16-.25-.29-.42-.39l-.36-.15c-.27-.07-.53-.07-.8,0l-.36,.15c-.23,.13-.4,.31-.54,.54-.28,.42-.56,.83-.83,1.25l-.15,.36c-.06,.2-.07,.4-.03,.6,0,.14,.03,.26,.1,.38,.06,.19,.16,.35,.31,.48l.3,.23,.36,.15c.2,.06,.4,.07,.6,.03,.2,0,.39-.07,.56-.18,.06-.03,.12-.06,.17-.1,.15-.11,.31-.22,.45-.35,.05-.05,.1-.09,.14-.15,.12-.15,.24-.3,.35-.46,.14-.22,.24-.47,.32-.71s.11-.53,.14-.79c0-.21-.04-.4-.13-.58-.06-.19-.16-.35-.31-.48-.14-.15-.3-.25-.48-.31-.18-.09-.37-.14-.58-.13l-.4,.05c-.25,.07-.47,.2-.66,.39l-.23,.3c-.14,.23-.2,.49-.2,.76Z"/>
    <path d="M55.9,56.95c5.15-6.4,9.7-13.25,13.54-20.52,.54-1.02-.13-2.21-1.3-2.26l-4.78-.18c-1.49-.06-3.12-.3-4.59,.04-2.65,.61-4.57,3.56-6.25,5.5-3.94,4.54-7.59,9.33-10.93,14.32l2.8,.76c0-.42-.04-.74-.15-1.15-.52-1.86-3.42-1.07-2.89,.8l.05,.35c-.01,1.56,2,1.95,2.8,.76,3.03-4.53,6.31-8.88,9.86-13.02,.84-.99,1.7-1.96,2.58-2.92,.8-.88,1.72-2.24,2.95-2.5s2.75,.02,4.03,.07l4.54,.17-1.3-2.26c-3.72,7.04-8.09,13.72-13.08,19.92-1.2,1.49,.91,3.63,2.12,2.12h0Z"/>
    <path d="M80.36,56.89c3.5-4.81,6.99-9.62,10.49-14.43,.7-.97,1.41-2.32,2.47-2.93s2.57-.22,3.7-.22c2.88,0,5.76-.49,8.49-1.4l-1.69-2.2c-3.38,7.12-7.14,14.04-11.27,20.75-1.02,1.65,1.58,3.16,2.59,1.51,4.13-6.71,7.89-13.63,11.27-20.75,.52-1.09-.35-2.65-1.69-2.2-3.03,1.01-6.08,1.38-9.27,1.25-1.27-.05-2.52,.01-3.64,.68s-1.92,1.77-2.69,2.82c-3.79,5.2-7.56,10.41-11.35,15.61-1.14,1.56,1.47,3.06,2.59,1.51h0Z"/>
    <path d="M115.53,57.31c2.34-5.19,5.17-10.15,8.46-14.8,.8-1.13,1.63-2.24,2.49-3.33,.76-.96,1.58-2.41,2.85-2.69,1.44-.31,3.11-.18,4.58-.25,1.56-.08,3.11-.15,4.67-.23l-1.45-1.9c-2.79,7.89-6.95,15.29-12.26,21.77l2.36,1.82,.69-1.23c.95-1.69-1.64-3.2-2.59-1.51l-.69,1.23c-.8,1.43,1.24,3.18,2.36,1.82,5.65-6.9,10.05-14.68,13.03-23.09,.32-.9-.52-1.94-1.45-1.9-1.71,.08-3.42,.17-5.14,.25-1.6,.08-3.33,0-4.91,.34-1.39,.3-2.35,1.21-3.22,2.28-1,1.21-1.96,2.45-2.89,3.72-3.73,5.05-6.9,10.49-9.48,16.2-.79,1.75,1.8,3.27,2.59,1.51h0Z"/>
    <g>
      <path d="M49.24,84.46c-.34,.46-.81,.83-1.31,1.11-1.73,.94-4.11,.73-5.43-.73-1.32-1.45-1.16-4.1,.5-5.16,.91-.59,2.09-.66,3.15-.41,1.13-.14,2.32,.31,3.03,1.21,.89,1.12,.91,2.83,.06,3.98Z"/>
      <path d="M47.94,83.71c.24-.31,0-.03-.04,.02-.08,.08-.16,.15-.23,.22-.25,.25,.19-.12,0,0-.07,.05-.15,.1-.22,.15-.17,.11-.35,.2-.53,.29-.24,.12,.08-.05,.1-.04-.04-.02-.31,.11-.36,.12-.15,.05-.3,.08-.46,.11l-.09,.02c-.16,.03-.12,.02,.12-.01-.08-.01-.2,.02-.28,.03-.16,0-.31,.01-.47,0-.09,0-.19-.01-.28-.02-.31-.02,.36,.07-.02,0-.17-.03-.33-.07-.5-.12-.09-.03-.18-.06-.26-.09-.25-.08,.09,.02,.1,.05-.06-.09-.39-.2-.49-.26-.07-.04-.13-.09-.19-.13-.09-.07-.05-.03,.12,.1-.05-.04-.09-.08-.14-.12-.12-.11-.22-.25-.35-.36-.14-.13,.21,.32,.06,.07-.04-.07-.09-.14-.13-.21s-.08-.15-.12-.22c-.11-.21,.05,.1,.05,.13-.03-.18-.13-.38-.17-.56-.01-.05-.02-.11-.03-.17-.07-.31,.02,.38,0,.06,0-.15-.02-.31-.01-.46,0-.07,0-.14,.01-.21,.01-.31-.08,.37-.01,.07,.03-.16,.07-.32,.12-.48,.02-.08,.07-.16,.08-.23-.09,.37-.08,.19-.01,.06,.06-.11,.18-.23,.21-.35-.08,.26-.17,.2-.03,.05,.05-.05,.09-.1,.14-.15,.04-.04,.12-.09,.15-.14-.2,.15-.23,.18-.1,.08,.05-.04,.11-.07,.16-.1,.08-.05,.16-.08,.24-.13,.18-.11-.34,.1-.01,0,.14-.04,.49-.21,.63-.16-.01,0-.38,.03-.07,.01,.11,0,.22-.01,.33-.02s.22,0,.33,0c.07,0,.15,.01,.22,.02l-.18-.03c.3-.02,.62,.14,.93,.13,.17,0,.33-.02,.5,0h.1c.17,.02,.13,.02-.1,0,0,0,.27,.06,.29,.06,.06,.02,.13,.04,.19,.06,.06,.02,.13,.04,.19,.07-.2-.09-.23-.1-.08-.03,.09,.05,.18,.09,.26,.15,.04,.03,.08,.05,.13,.08,.09,.06,.06,.03-.1-.09,.06,.01,.18,.15,.23,.2,.05,.05,.09,.09,.14,.14,.1,.12,.09,.1-.04-.07,.06,.02,.32,.5,.3,.51l-.07-.18c.02,.06,.05,.12,.07,.19,.03,.09,.06,.19,.08,.29l.02,.1c.03,.16,.03,.13,0-.11-.02,.01,.02,.31,.02,.35,0,.08,0,.17,0,.25,0,.07,0,.13-.02,.2,.03-.23,.04-.27,0-.1-.02,.06-.1,.55-.17,.57l.07-.18c-.03,.06-.06,.12-.09,.18-.06,.12-.14,.23-.21,.33-.46,.64-.13,1.7,.54,2.05,.77,.41,1.56,.15,2.05-.54,1.33-1.86,1.03-4.79-.75-6.26-.94-.78-2.1-1.25-3.33-1.21-.04,0-.11,0-.15,0-.13,.04,.11,.04,.14,.04-.12,0-.25-.05-.38-.07-.35-.05-.7-.1-1.06-.1-.58,0-1.19,.08-1.73,.27-1.06,.38-1.99,1.06-2.54,2.07-.46,.84-.69,1.85-.61,2.81,.1,1.09,.46,2.06,1.14,2.92,.64,.81,1.59,1.36,2.57,1.67,1.1,.34,2.33,.34,3.44,.05,1.33-.35,2.43-1.13,3.25-2.21,.22-.29,.24-.83,.15-1.16-.1-.35-.36-.73-.69-.9-.35-.18-.77-.28-1.16-.15s-.65,.36-.9,.69Z"/>
    </g>
    <path d="M46.15,77.77c-.42,.05-.83,.1-1.22,.26-.2,.05-.37,.14-.51,.27-.16,.11-.29,.25-.39,.42-.11,.17-.17,.36-.18,.56-.04,.2-.04,.4,.03,.6l.15,.36c.13,.23,.31,.4,.54,.54l.36,.15c.27,.07,.53,.07,.8,0,.24-.1,.49-.17,.75-.2l-.4,.05s.05,0,.07,0c.21,0,.4-.04,.58-.13,.19-.06,.35-.16,.48-.31,.15-.14,.25-.3,.31-.48,.09-.18,.14-.37,.13-.58l-.05-.4c-.07-.25-.2-.47-.39-.66l-.3-.23c-.23-.14-.49-.2-.76-.2h0Z"/>
    <g>
      <path d="M122.66,83.49c-1.68,.81-3.69,.54-5.42-.16-.42-.17-.85-.38-1.14-.74-.35-.44-.42-1.05-.38-1.61,.19-2.59,2.72-4.74,5.28-4.61,1.44,.49,3.01,1.13,3.65,2.51,.78,1.69-.32,3.81-1.99,4.61Z"/>
      <path d="M121.9,82.2c-.28,.13-.12,.05-.06,.02-.12,.04-.23,.08-.35,.12-.19,.05-.38,.09-.58,.13-.24,.05,.2,0-.04,0-.12,0-.25,.02-.37,.02-.23,0-.45,0-.68-.02-.06,0-.39-.04-.13,0-.1-.01-.2-.03-.3-.05-.2-.04-.4-.08-.6-.14s-.39-.11-.59-.18c-.1-.03-.19-.07-.29-.1-.03,0-.45-.2-.18-.07-.16-.08-.33-.16-.48-.27,.22,.16,0,.01-.01-.03,.1,.31-.08-.17,.01,.02,.07,.16-.02-.12-.04-.15-.08-.19-.01,.19,0-.02,0-.09,0-.19,0-.29,0-.05,.03-.47,0-.26s.01-.06,.02-.11c.02-.08,.04-.16,.06-.24,.05-.18,.11-.36,.17-.53-.12,.3,.07-.12,.11-.2,.1-.18,.22-.35,.33-.52-.18,.26,.1-.11,.16-.18,.11-.12,.23-.24,.35-.35,.06-.06,.13-.11,.19-.16-.23,.2-.02,.02,.04-.03,.15-.11,.31-.21,.47-.3,.09-.05,.18-.1,.28-.14,.04-.02,.29-.12,.1-.05s.07-.02,.11-.04c.08-.03,.16-.05,.24-.08,.18-.05,.36-.09,.54-.13-.05,.01-.32,.02-.03,0,.12,0,.25-.01,.37-.02,.18-.01,.1,.07-.03,0,.06,.04,.18,.06,.24,.08,.16,.06,.32,.12,.48,.18,.27,.1,.06,.02,0,0,.08,.03,.16,.07,.24,.11,.19,.09,.39,.19,.57,.29,.15,.08,.29,.18,.43,.27,.32,.21-.12-.13,.04,.03,.06,.06,.12,.11,.18,.17s.11,.12,.17,.18c.16,.14-.12-.19,0-.02,.06,.09,.12,.17,.17,.26,.02,.04,.16,.35,.09,.16s.11,.56,.08,.31c-.03-.21,0,.04,0,.09,0,.1,0,.2,0,.29,0,.27,0,0,.01-.05-.02,.12-.05,.23-.08,.35-.02,.08-.05,.15-.07,.23-.11,.36,.14-.25-.04,.09-.1,.18-.2,.35-.31,.52-.04,.07-.18,.19,.01-.01-.08,.09-.16,.18-.25,.27-.06,.06-.12,.11-.18,.17-.2,.19,.11-.06-.03,.03-.19,.12-.37,.24-.57,.34-.7,.35-.96,1.4-.54,2.05,.46,.72,1.3,.91,2.05,.54,2.01-1.01,3.3-3.33,2.9-5.57s-2.65-3.5-4.68-4.21c-1.1-.38-2.42,0-3.45,.44-.91,.4-1.76,1.01-2.39,1.77-1.45,1.72-2.48,4.83-.57,6.63,.97,.92,2.52,1.34,3.81,1.52,1.53,.22,2.97,.06,4.37-.59,.71-.33,.95-1.42,.54-2.05-.47-.74-1.29-.89-2.05-.54Z"/>
    </g>
    <path d="M120.47,77.77s.06,.02,.09,.03l-.36-.15c.14,.06,.23,.12,.4,.17,.2,.05,.3,.05,.45,.05,.04,0,.08,0,.13,0,.09,0,.17,.02,.26,.03,.21,0,.4-.04,.58-.13,.19-.06,.35-.16,.48-.31,.15-.14,.25-.3,.31-.48,.09-.18,.14-.37,.13-.58l-.05-.4c-.07-.25-.2-.47-.39-.66l-.3-.23c-.23-.14-.49-.2-.76-.2-.15-.02-.29-.04-.44-.04l.76,.2c-.14-.07-.28-.12-.42-.18-.02,0-.05-.02-.07-.02-.2-.06-.4-.07-.6-.03-.2,0-.39,.07-.56,.18-.17,.09-.32,.22-.42,.39-.13,.14-.22,.31-.27,.51l-.05,.4c0,.27,.07,.52,.2,.76l.23,.3c.19,.19,.41,.31,.66,.39h0Z"/>
    <path d="M56.03,106.41c4.62,6.92,12.87,9.4,20.73,10.34,8.27,.99,17.17,.91,25.16-1.68,4.5-1.46,8.65-3.8,12.01-7.15,1.37-1.36-.75-3.49-2.12-2.12-5.54,5.52-13.29,7.73-20.91,8.3s-15.53,.23-22.63-2.23c-3.83-1.33-7.38-3.55-9.66-6.97-1.07-1.6-3.67-.1-2.59,1.51h0Z"/>
    <path d="M4.02,10.6c-.27,.44-.48,.91-.66,1.39-.14,.37-.25,.75-.32,1.14-.06,.2-.07,.4-.03,.6,0,.2,.07,.39,.18,.56,.18,.31,.54,.61,.9,.69,.38,.09,.81,.07,1.16-.15,.31-.2,.62-.52,.69-.9,.09-.45,.22-.89,.4-1.32l-.15,.36c.13-.29,.27-.58,.44-.85,.2-.33,.25-.79,.15-1.16-.1-.35-.36-.73-.69-.9-.35-.18-.77-.28-1.16-.15s-.69,.35-.9,.69h0Z"/>
    <path d="M57.01,36.17c-2.67,2.1-3.69,5.45-5.84,7.98s-4.88,4.51-6.84,7.22c-.87,1.2-2.03,2.95-1.4,4.49,.82,2.01,3.68,1.21,5.34,1.08,1.02-.08,2.03-.15,3.05-.23s1.95-.08,2.79-.62,1.25-1.42,1.74-2.2c.59-.94,1.17-1.87,1.76-2.81,2.62-4.18,5.23-8.37,7.85-12.55,.62-.99-.19-2.23-1.3-2.26-1.16-.03-2.32-.05-3.48-.04-1.01,0-2.11-.1-3.08,.25s-1.52,1.22-2.08,2.06c-.64,.98-1.29,1.95-1.93,2.93-2.54,3.85-5.07,7.7-7.61,11.55-.79,1.21,.51,2.39,1.69,2.2,1.02-.16,2.03-.32,3.05-.49,.84-.13,1.7-.22,2.44-.68,1.42-.87,2.22-2.96,3.04-4.34,1.05-1.77,2.1-3.55,3.14-5.32,.46-.78,.92-1.55,1.38-2.33s1.05-1.67,1-2.66c-.08-1.72-1.86-2.62-3.39-2.13-1.65,.53-2.74,2.6-3.63,3.96-1.91,2.95-3.37,6.2-4.37,9.57-.55,1.86,2.35,2.65,2.89,.8,.74-2.48,1.73-4.86,3.01-7.11,.64-1.13,1.35-2.22,2.11-3.27,.15-.21,.83-.9,.83-1.09-.25-.61-.44-.74-.58-.39-.09,.16-.18,.32-.28,.48-.2,.33-.39,.67-.59,1-1.51,2.55-3.01,5.1-4.52,7.65-.36,.61-.72,1.22-1.08,1.83-.26,.44-.4,.77-.9,.92-1.37,.42-2.95,.48-4.36,.71l1.69,2.2c2.25-3.42,4.5-6.83,6.75-10.25,.54-.81,1.07-1.63,1.61-2.44,.29-.43,.57-.87,.86-1.3,.2-.3,.5-1.03,.8-1.21,.55-.33,1.83-.1,2.47-.1,1.03,0,2.06,.02,3.09,.04l-1.3-2.26c-1.96,3.14-3.92,6.27-5.89,9.41-.96,1.54-1.93,3.08-2.89,4.62-.45,.72-.86,1.65-1.43,2.28-.47,.52-1.42,.38-2.1,.43-.83,.06-1.65,.13-2.48,.19-.31,.02-2.79,.03-2.86,.22l.26,.41c.17,.5,.28,.55,.33,.17,.05-.05,.1-.2,.13-.26,.14-.31,.32-.6,.5-.88,.34-.55,.73-1.06,1.16-1.55,1.84-2.12,4.1-3.84,5.89-6,2.03-2.46,3.1-5.75,5.65-7.75,.64-.5,.52-1.59,0-2.12-.62-.64-1.49-.5-2.12,0h0Z"/>
    <path d="M90.79,38.71c-3.19,5.46-6.53,10.83-10.01,16.11-.62,.94,.19,2.3,1.3,2.26l7.96-.34c1.18-.05,2.71,.13,3.8-.42s1.51-1.76,2.03-2.76c2.29-4.4,4.49-8.9,5.73-13.73,.24-.93-.46-1.91-1.45-1.9-1.13,.01-2.27,.04-3.4,.09s-2.32-.02-3.4,.23c-1.99,.47-2.23,3.04-2.97,4.62-1.73,3.72-4.3,6.95-6.85,10.13-.95,1.18-.07,2.78,1.46,2.51s3.19-.41,4.65-.92c1.56-.55,2.38-1.65,3.06-3.09,.74-1.59,1.48-3.17,2.22-4.76,.37-.79,.74-1.59,1.11-2.38,.18-.4,.36-.8,.56-1.19,.08-.17,.17-.33,.26-.48,.17-.17,.15-.16-.06,.03l-.76-.2c-.09-.1-.12-.22-.11-.34l-.05,.14c-.16,.09-.36,.62-.47,.8-.4,.65-.8,1.3-1.19,1.95-.8,1.3-1.59,2.61-2.39,3.91-1,1.64-3.52,5.18-.35,6.2,.64,.21,1.35-.14,1.69-.69,1.39-2.25,1.33-6.09-1.14-7.65-3.19-2.02-5.02,2.78-5.57,5.08-.17,.71,.13,1.28,.69,1.69,1.57,1.16,3.14-.38,4.18-1.47,1.26-1.33,2.51-2.67,3.74-4.03,2.47-2.71,4.87-5.47,7.23-8.28,1.23-1.47-.88-3.6-2.12-2.12-1.96,2.34-3.96,4.65-6,6.92-.98,1.09-1.97,2.17-2.96,3.25-.5,.54-1,1.07-1.5,1.61-.29,.31-.59,.62-.88,.93-.13,.13-.25,.27-.38,.4-.23,.16-.16,.23,.22,.21l.69,1.69c.17-.71,.38-1.42,.68-2.09,.12-.25,.59-.84,.59-1.1,.21-.17,.13-.24-.23-.19,.08,.06,.15,.14,.2,.23,.16,.57,.48,.97,.5,1.61s-.17,1.23-.52,1.79l1.69-.69-.18-.06,.66,.39c.72,.58-.2,.52,.27,.16,.25-.19,.44-.72,.6-.98,.46-.76,.93-1.52,1.39-2.28,.86-1.41,1.72-2.82,2.59-4.23,.73-1.2,1.66-2.46,1.18-3.93s-2.13-2.12-3.43-1.3-1.71,2.39-2.3,3.64c-.74,1.59-1.48,3.17-2.22,4.76-.45,.97-.91,2.77-1.98,3.24-.66,.29-1.48,.35-2.18,.48-.82,.15-1.65,.29-2.47,.44l1.46,2.51c2.37-2.95,4.77-5.92,6.58-9.27,.42-.78,.8-1.57,1.14-2.38,.2-.47,.4-.95,.57-1.44,.08-.21,.15-.42,.22-.63,.01-.04,.16-.66,0-.33-.06,.13-.32,.08,.33,.04,.25-.02,.5-.03,.75-.04,.5-.03,1.01-.05,1.51-.07,1.13-.05,2.27-.07,3.4-.09l-1.45-1.9c-1.09,4.25-2.95,8.2-4.94,12.08-.24,.47-.48,.93-.73,1.4-.11,.21-.22,.41-.32,.62,.02-.03-.43,.71-.22,.54,.15-.13-.41-.02-.55,0-.25,.01-.51,.02-.76,.03l-1.9,.08-7.2,.3,1.3,2.26c3.48-5.28,6.81-10.65,10.01-16.11,.98-1.67-1.61-3.18-2.59-1.51h0Z"/>
    <path d="M126.28,35.95c-2.53,6.45-5.84,12.58-9.78,18.28-.66,.96,.22,2.26,1.3,2.26h3.21c1.09,0,2.31,.14,3.38-.13,1.84-.46,2.75-2.05,3.39-3.7s1.29-3.1,2.28-4.54,2.17-2.81,3.28-4.19c1.22-1.52,7-8.59,2.76-9.46-.98-.2-2.17,.14-3.15,.26-1.06,.13-2.2,.15-3.19,.55-1.95,.77-2.91,3.33-3.81,5.07-1.12,2.19-2.1,4.45-2.94,6.76-.42,1.16-.76,2.36-1.16,3.52-.28,.82-.7,1.75-1.7,1.63l1.06,2.56c2.27-2.71,4.65-5.36,6.78-8.18,1.01-1.34,1.64-2.76,2.3-4.29,.48-1.11,1.21-2.79,2.62-2.89l-1.06-.44c-.29-.38-.25,.03-.36,.35-.17,.47-.36,.93-.54,1.4-.36,.93-.73,1.87-1.09,2.8-.68,1.75-1.36,3.5-2.04,5.25-.36,.93-.73,1.87-1.09,2.8-.13,.34-.36,1.35-.71,1.53-.11,.06-.07,.07-.26-.08-.21-.18-.3-.38-.34-.65-.12-.81,.41-1.71,.75-2.4,.86-1.72-1.73-3.24-2.59-1.51-.78,1.57-1.57,3.39-.94,5.15,.56,1.53,2.13,2.78,3.81,2.48s2.44-1.88,3.02-3.36c.73-1.87,1.45-3.73,2.18-5.6s1.45-3.73,2.18-5.6c.57-1.45,1.48-3.34,.13-4.67-1.28-1.26-3.66,.25-4.61,1.25-1.24,1.31-1.72,3-2.48,4.59-.85,1.78-2.18,3.24-3.43,4.74-1.46,1.74-2.91,3.48-4.37,5.22-.88,1.05-.26,2.41,1.06,2.56,2.26,.26,3.79-1.65,4.49-3.55,.79-2.12,1.38-4.29,2.27-6.38s1.91-4.12,3.05-6.08c.21-.36,.44-.95,.81-1.17,.34-.21,.9-.2,1.29-.25,.59-.07,1.19-.14,1.78-.22,.45-.05,1.27-.3,1.71-.21l-.66-.39,.18,.15-.39-.66,.04,.26v-.8c-.53,2.07-2.02,3.97-3.33,5.61-1.41,1.77-2.91,3.48-4.17,5.37-.6,.9-1.12,1.84-1.55,2.83-.41,.94-.65,1.97-1.16,2.87-.56,.98-1.39,.84-2.43,.84h-4.28c.43,.75,.86,1.5,1.3,2.25,4.09-5.92,7.45-12.3,10.08-18.99,.3-.75-.33-1.65-1.05-1.85-.85-.23-1.55,.29-1.85,1.05h0Z"/>
  </g>
</svg>