<svg xmlns="http://www.w3.org/2000/svg" id="a" data-name="Icon" viewBox="261.14 -0.02 215.67 155.85">
  <path d="M261.47,12.79c.2,22.56,.62,45.13,1.28,67.68,.33,11.28,.72,22.55,1.16,33.83s0,22.36,1.53,33.16c1.55,10.87,15.04,8.02,23.06,8.06,11.32,.06,22.64,.07,33.96,.04,22.97-.06,45.94-.29,68.91-.69,25.63-.45,51.26-1.12,76.87-2,2.77-.09,4.91-2.22,5-5,.77-23.88,1.43-47.76,1.99-71.65,.28-11.94,.53-23.89,.75-35.83,.1-5.64,.2-11.28,.3-16.92s1.13-11.98,.02-17.36c-.79-3.85-3.8-5.97-7.64-6.1-6.08-.2-12.36,.69-18.44,.99-11.49,.57-22.99,.98-34.49,1.23-23.58,.52-47.15,.13-70.74-.14-26.4-.31-52.84-.11-79.09,3.14-6.3,.78-6.38,10.79,0,10,33.73-4.17,67.71-3.26,101.61-2.83,17.06,.22,34.11,.18,51.17-.23,8.54-.21,17.08-.5,25.62-.89,3.94-.18,7.88-.37,11.82-.58,3.68-.2,9.82-1.72,13.2-.34l-2.99-2.3c1.04,1.51,.09,5.59,.07,7.45-.05,2.99-.09,5.97-.14,8.96-.09,5.64-.19,11.28-.3,16.92-.22,11.94-.47,23.89-.75,35.83-.55,23.55-1.21,47.1-1.96,70.65l5-5c-32.61,1.12-65.22,1.9-97.85,2.32-15.98,.21-31.96,.33-47.94,.37-7.99,.02-15.98,.02-23.97,0-4.33-.01-8.66-.03-12.98-.05-3.7-.02-9.19,.85-12.62-.59l2.99,2.3c-1.26-1.67-.75-5.05-.84-7.06-.14-2.98-.28-5.97-.41-8.95-.25-5.64-.49-11.27-.71-16.91-.44-11.27-.83-22.55-1.16-33.83-.66-22.56-1.08-45.12-1.28-67.68-.06-6.43-10.06-6.45-10,0h0Z" />
  <path d="M272.54,66.34c64.48-2.37,128.94-5.11,193.39-8.21,6.41-.31,6.44-10.31,0-10-64.45,3.1-128.91,5.84-193.39,8.21-6.42,.24-6.45,10.24,0,10h0Z" />
  <path d="M298.58,58.43l11.53-23.15,5.32-10.69c1.84-3.7,2.79-8.41,7.67-7.66l-3.49-6.15c-2.19,7.28-5.97,13.79-9.65,20.39-3.96,7.11-7.92,14.21-11.88,21.32-3.14,5.63,5.5,10.68,8.63,5.05,7.89-14.16,17.85-28.47,22.54-44.1,.71-2.37-.86-5.74-3.49-6.15-4-.62-8.27-1.09-11.82,1.33-4.11,2.79-5.9,8.45-8.03,12.71-5.32,10.69-10.64,21.37-15.96,32.06-2.86,5.74,5.76,10.81,8.63,5.05h0Z" />
  <path d="M371.33,53.17c2.09-5.97,5.07-11.56,7.88-17.22,1.44-2.91,2.89-5.82,4.33-8.73,.87-1.75,1.73-3.49,2.6-5.24,.47-.95,2.13-3.14,2.01-4.01,.63-.76,.21-1.14-1.27-1.13-1.43-1.16-2.24-.75-2.44,1.23-.74,1.45-1.58,2.85-2.37,4.27-1.58,2.85-3.16,5.7-4.74,8.54-3.32,5.98-6.63,11.96-9.95,17.94-3.12,5.63,5.51,10.68,8.63,5.05,5.05-9.11,10.1-18.23,15.15-27.34,2.04-3.69,4.69-7.53,4.03-11.94-.49-3.32-2.89-6.4-6.32-7.03-8.62-1.59-11.99,10.59-14.85,16.35-4.33,8.73-9.13,17.37-12.36,26.59-2.13,6.09,7.53,8.7,9.64,2.66h0Z" />
  <path d="M427.78,54.09c1.56-6.25,3.26-12.47,5.17-18.63,.95-3.08,1.95-6.14,2.99-9.19,.63-1.86,1.29-3.71,1.95-5.55,.42-1.16,1.77-3.27,1.67-4.35,.66-.87,.24-1.42-1.28-1.67-1.4-1.63-2.12-1.36-2.17,.81-.82,1.1-1.02,3.3-1.4,4.59-.9,3.07-1.75,6.16-2.52,9.26-1.63,6.52-2.96,13.11-4.05,19.75-1.04,6.3,8.6,9,9.64,2.66,1.66-10.11,3.91-20.11,6.84-29.93,1.77-5.91,4.64-15.94-5.25-16.15-8.21-.17-10.37,10.13-12.45,16.1-3.39,9.74-6.3,19.64-8.79,29.65-1.56,6.25,8.09,8.91,9.64,2.66h0Z" />
  <path d="M309.85,80.52c-4.06-2.36-8.96-.97-11.67,2.7-2.53,3.42-3.12,9.37,.56,12.19,3.29,2.52,8.13,1.62,11.23-.76,1.51-1.16,2.66-2.6,3.4-4.36,.42-1,.78-2.07,.78-3.18,0-1.86-1.11-3.17-2.33-4.43-1.87-1.95-5.19-1.88-7.07,0s-1.87,5.12,0,7.07c.29,.3,.57,.6,.86,.9l-1.29-4.86c-.04,.29-.11,.57-.2,.85,.24-.52,.23-.53-.05-.02,.37-.42,.36-.42-.03,0l-.32,.3c.44-.33,.42-.34-.06-.03,.54-.19,.54-.19,0,0-.58,.13-.56,.14,.05,.03-.52-.02-.58-.01-.18,.03,1.34,.11,2.21,1.08,2.59,2.9,.04-.61,.03-.65-.04-.14,.06-.32,.15-.64,.26-.95-.15,.37-.14,.41,.03,.1,.18-.3,.17-.27-.02,.07-.18,.21-.4,.34-.67,.39,.58-.15,.58-.15-.02,0-.31,.01-.6-.04-.88-.16,2.26,1.31,5.58,.6,6.84-1.79s.62-5.44-1.79-6.84h0Z" />
  <path d="M428.75,74.5c-4.53,.54-8.95,2.61-10.67,7.14-1.54,4.08,.42,8.74,4.32,10.63s8.73,1.27,11.6-2.18c3.07-3.68,3.13-8.42,1.24-12.64-1.11-2.46-4.69-3.05-6.84-1.79-2.54,1.48-2.9,4.37-1.79,6.84-.43-.96,0,.28,.04,.45-.19-.94-.15,.13-.06,.19-.02,.38,0,.29,.06-.25l-.1,.42c-.16,.48-.17,.55-.04,.2,.15-.33,.11-.28-.12,.16l.28-.33c-.36,.34-.4,.4-.12,.18,.28-.2,.23-.17-.17,.07l.47-.22c-.47,.1-.51,.12-.1,.04,.41-.05,.37-.07-.12-.06l.55,.07c-.46-.14-.5-.14-.15,0,.29,.14,.31,.15,.06,.02-.31-.18-.24-.1,.22,.25-.49-.79,.29,.51-.05,0-.28-.42,.22,.62,.26,.84-.11,.57-.12,.67-.02,.31,.11-.35,.08-.26-.09,.27-.23,.57-.29,.25,.17-.11,.35-.27-.54,.17,.25-.12,1.36-.5-.95,.12,.48-.22,.25-.06,1.55-.31,.44-.18,2.59-.31,5.13-2.08,5-5-.11-2.44-2.22-5.33-5-5h0Z" />
  <path d="M321.75,114.55c29.58,15.35,65.49,15.05,94.77-.89,5.65-3.08,.61-11.72-5.05-8.63-26.04,14.18-58.34,14.56-84.67,.89-5.7-2.96-10.77,5.67-5.05,8.63h0Z" />
</svg>